<svg aria-hidden="true" style="width:0;height:0;position:absolute" xmlns="http://www.w3.org/2000/svg" overflow="hidden"><defs><symbol id="icon-github" viewBox="0 0 32 32"><path d="M16 0C7.211 0 0 7.211 0 16c0 7.499 5.262 14.312 12.25 16v-5.293a3.921 3.921 0 0 1-2.062-.06l.028.007c-.946-.278-1.714-.909-2.285-1.869-.363-.613-1.008-1.28-1.68-1.23l-.165-1.867c1.454-.125 2.71.886 3.456 2.139.333.558.715.885 1.205 1.029.472.141.981.074 1.573-.136.149-1.186.693-1.629 1.104-2.256-4.168-.621-5.829-2.832-6.488-4.576-.874-2.318-.405-5.213 1.139-7.043.03-.035.085-.128.064-.192-.709-2.141.154-3.91.186-4.098.818.24.95-.243 3.552 1.336l.448.27c.189.112.128.048.317.032a13.246 13.246 0 0 1 3.349-.469h.01c1.136.014 2.272.176 3.403.483l.146.016c-.013-.003.04-.01.128-.062 3.248-1.968 3.131-1.325 4.003-1.608.032.189.882 1.987.182 4.099-.096.291 2.816 2.957 1.202 7.235-.659 1.744-2.32 3.957-6.486 4.578.534.816 1.176 1.248 1.173 2.928v6.606c6.986-1.688 12.25-8.501 12.25-16 0-8.789-7.211-16-16-16z"/></symbol><symbol id="icon-facebook" viewBox="0 0 16 32"><path d="M14.143 15.971H10.11v14.865H3.998V15.971H1.092v-5.222h2.906V7.367c0-2.417 1.142-6.204 6.167-6.204l4.527.019v5.072h-3.284c-.538 0-1.297.272-1.297 1.425v3.073h4.567l-.534 5.219z"/></symbol><symbol id="icon-telegram" viewBox="0 0 44 32"><path d="m17.342 21.048-.674 8.86c.966 0 1.384-.388 1.886-.852l4.526-4.04 9.38 6.414c1.72.894 2.934.422 3.4-1.478L42.016 3.02c.548-2.374-.92-3.302-2.594-2.72L3.228 13.234c-2.47.896-2.434 2.18-.42 2.766l9.252 2.684L33.554 6.132c1.012-.626 1.932-.28 1.176.346l-17.39 14.57z"/></symbol><symbol id="icon-home" viewBox="0 0 35 32"><path d="M34.253 15.613a1.571 1.571 0 0 0-.129-2.254l-.002-.002L19.349.432A1.828 1.828 0 0 0 18.165 0c-.467 0-.893.174-1.217.46l.002-.002L2.129 14.047a1.564 1.564 0 0 0-.071 2.251l.373.387c.613.64 1.611.72 2.224.171l1.107-.992v14.523c0 .893.72 1.613 1.613 1.613h5.773c.891 0 1.613-.72 1.613-1.613v-10.16h7.373v10.16c-.013.891.624 1.613 1.515 1.613h6.123a1.61 1.61 0 0 0 1.611-1.613v-14.32l.685.603c.376.331 1.168.064 1.765-.595l.421-.461z"/></symbol><symbol id="icon-circle" viewBox="0 0 32 32"><path d="M32 16c0 8.837-7.163 16-16 16S0 24.837 0 16 7.163 0 16 0s16 7.163 16 16z"/></symbol><symbol id="icon-brackets" viewBox="0 0 43 32"><path d="M32.014 0c1.928 0 3.75.52 5.464 1.561s3.107 2.537 4.178 4.488c1.029 1.951 1.543 4.25 1.543 6.894s-.643 5.225-1.928 7.74c-.429.91-1.2 2.081-2.315 3.512a63.65 63.65 0 0 1-3.214 3.707L31.692 32l-2.893-4.813a22.225 22.225 0 0 0 5.306-4.646l.03-.037c1.542-1.821 2.314-3.49 2.314-5.008 0-.781-.171-1.41-.514-1.886a8.361 8.361 0 0 1-5.014 1.626c-1.328 0-2.593-.412-3.793-1.236a8.638 8.638 0 0 1-2.935-3.078l-.022-.043c-.771-1.258-1.157-2.558-1.157-3.902 0-1.518.45-2.97 1.35-4.358a10.313 10.313 0 0 1 3.364-3.356l.044-.025C29.142.414 30.556.002 32.014.002zM8.936 0c1.928 0 3.75.52 5.464 1.561s3.107 2.536 4.178 4.488c1.029 1.951 1.543 4.25 1.543 6.894 0 1.864-.236 3.534-.707 5.008-.472 1.518-1.286 3.1-2.443 4.748-1.114 1.561-2.164 2.862-3.15 3.902-.986 1.084-2.7 2.883-5.143 5.398l-2.893-4.813a22.225 22.225 0 0 0 5.306-4.646l.03-.037c1.542-1.821 2.314-3.49 2.314-5.008 0-.781-.172-1.41-.514-1.886a8.361 8.361 0 0 1-5.014 1.626c-1.328 0-2.593-.412-3.793-1.236a8.638 8.638 0 0 1-2.935-3.078l-.022-.043C.386 11.62 0 10.32 0 8.976c0-1.518.429-2.97 1.286-4.358A10.313 10.313 0 0 1 4.65 1.262l.045-.025C6.065.413 7.479.001 8.937.001z"/></symbol><symbol id="icon-close" viewBox="0 0 32 32"><path d="M16 15.057 29.724 1.333l.943.943L16.943 16l13.724 13.724-.943.943L16 16.943 2.276 30.667l-.943-.943L15.057 16 1.333 2.276l.943-.943L16 15.057z"/></symbol><symbol id="icon-menu" viewBox="0 0 20 14"><path d="M0 1h20M0 7h20M0 13h20"/></symbol><symbol id="icon-arrow" viewBox="0 0 32 32"><path d="m10.829 32-5.496-5.333L16 16 5.333 5.333 10.829 0l15.837 16z"/></symbol><symbol id="icon-arrow-right" viewBox="0 0 32 32"><path d="m19.414 27.414 10-10a2 2 0 0 0 0-2.828l-10-10a2 2 0 1 0-2.828 2.828L23.172 14H4a2 2 0 1 0 0 4h19.172l-6.586 6.586c-.39.39-.586.902-.586 1.414s.195 1.024.586 1.414a2 2 0 0 0 2.828 0z"/></symbol><symbol id="icon-person-black" viewBox="0 0 32 32"><path d="M16 16a5.333 5.333 0 1 0 0-10.666A5.333 5.333 0 1 0 16 16zm0 2.667c-3.561 0-10.667 1.787-10.667 5.333v1.333c0 .732.599 1.333 1.333 1.333h18.667c.732 0 1.333-.601 1.333-1.333V24c0-3.547-7.108-5.333-10.667-5.333z"/></symbol><symbol id="icon-phone-black" viewBox="0 0 32 32"><path d="m24.882 19.774-3.268-.373a2.552 2.552 0 0 0-2.11.732l-2.368 2.368c-3.669-1.894-6.585-4.81-8.427-8.372l-.051-.108 2.382-2.377a2.552 2.552 0 0 0 .731-2.122l.001.012-.373-3.243a2.578 2.578 0 0 0-2.557-2.276H6.613c-1.454 0-2.663 1.209-2.574 2.661.683 10.987 9.47 19.762 20.444 20.444 1.452.089 2.663-1.12 2.663-2.574v-2.238a2.549 2.549 0 0 0-2.253-2.532l-.012-.001z"/></symbol><symbol id="icon-email-black" viewBox="0 0 32 32"><path d="M26.667 5.333H5.334A2.662 2.662 0 0 0 2.682 8l-.014 16c0 1.467 1.2 2.667 2.667 2.667h21.333c1.467 0 2.667-1.2 2.667-2.667V8c0-1.467-1.2-2.667-2.667-2.667zm-.534 5.668-9.426 5.892a1.343 1.343 0 0 1-1.421-.004l.006.003L5.866 11A1.133 1.133 0 1 1 7.07 9.083l-.004-.003 8.933 5.586 8.933-5.588a1.132 1.132 0 1 1 1.204 1.916l-.005.003z"/></symbol><symbol id="icon-location" viewBox="0 0 32 32"><path d="M16 0C10.477 0 6 4.477 6 10c0 10 10 22 10 22s10-12 10-22c0-5.523-4.477-10-10-10zm0 16a6 6 0 1 1 0-12 6 6 0 0 1 0 12z"/></symbol><symbol id="icon-delivery" viewBox="0 0 32 32"><path d="M6.667 14.667V16h10.667V6.667H4.001V5.334c0-.736.597-1.333 1.333-1.333h13.333c.736 0 1.333.597 1.333 1.333v2.667h6.223c1.489 0 2.133.768 2.581 1.476a335.786 335.786 0 0 1 2.812 4.504c.251.416.384.893.384 1.38v5.973c0 1.452-.991 2.667-2.667 2.667H28c0 2.208-1.792 4-4 4s-4-1.792-4-4h-5.333c0 2.208-1.792 4-4 4s-4-1.792-4-4H5.334a1.333 1.333 0 0 1-1.333-1.333v-8H1.334v-2.667h9.333v2.667h-4zm4 7.733a1.6 1.6 0 1 1-.002 3.202 1.6 1.6 0 0 1 .002-3.202zM24 22.4a1.6 1.6 0 1 1-.002 3.202A1.6 1.6 0 0 1 24 22.4zm-4-3.733H6.667v2.667h1.02c.732-.819 1.796-1.333 2.98-1.333s2.248.515 2.98 1.333h7.373c.732-.819 1.796-1.333 2.98-1.333s2.248.515 2.98 1.333h2.353v-6.1l-2.281-3.905a1.333 1.333 0 0 0-1.151-.661H20v8zM21.333 12v4H28l-1.903-3.328A1.331 1.331 0 0 0 24.94 12h-3.607zM0 8h10.667v2.667H0V8z"/></symbol><symbol id="icon-coffee" viewBox="0 0 32 32"><path d="M5.333 12v-1.843C6.493 10.157 8 9.228 8 8h16.052c0 1.229 1.456 2.157 2.615 2.157V12h-1.333l-2.667 20H9.334L6.641 12H5.334zm15.724 12H10.934l.712 5.333h8.707L21.057 24zM9.333 12l.712 5.333h11.891L22.64 12H9.333zm4.412-4.921c3.759-2.857-.792-3.137.103-5.157-3.148 2.817 1.133 2.892-.103 5.157zm3.315-.002C22.708 2.76 15.891 2.988 17.2 0c-4.509 3.86 1.679 3.945-.14 7.077z"/></symbol><symbol id="icon-milkshake" viewBox="0 0 32 32"><path d="M16.247 5.333 19.064 0l1.812.845-2.423 4.488h5.599c0 1.229 1.456 2.157 2.615 2.157v1.843h-1.333L22.667 32H9.334L6.641 9.333H5.334V7.49c1.16 0 2.667-.929 2.667-2.157h8.247zm-6.914 4 2.313 20h8.707l2.313-20H9.333zm5 14a1 1 0 1 1 0 2 1 1 0 0 1 0-2zM17.969 20a1.333 1.333 0 1 1 0 2.667 1.333 1.333 0 0 1 0-2.667zM14 16a2 2 0 1 1-.001 4.001A2 2 0 0 1 14 16z"/></symbol><symbol id="icon-icecream" viewBox="0 0 32 32"><path d="M7.361 11.965a5.337 5.337 0 0 1 3.441-7.829C11.346 1.768 13.467 0 15.999 0s4.653 1.768 5.197 4.136a5.337 5.337 0 0 1 4.136 5.197c0 .956-.252 1.855-.695 2.631a3.333 3.333 0 0 1-2.357 5.357l-.003.012c-.313 1.14-3.192 11.592-3.56 12.717-.465 1.271-1.567 1.949-2.719 1.949-1.137 0-2.244-.663-2.719-1.949-.347-1.068-2.961-10.547-3.564-12.729A3.335 3.335 0 0 1 6.664 14c0-.767.259-1.472.695-2.035zm14.655 1.368H10a.668.668 0 0 0 0 1.334h1.769c.081.291 3.927 14.257 4.041 14.532.085.192.317.173.388-.019.127-.391 1.563-5.476 2.156-7.625.604-2.185 1.877-6.888 1.877-6.888h1.784a.667.667 0 0 0 0-1.334zm.285-2.653c.232-.395.365-.856.365-1.347 0-1.684-1.488-3.324-4-2.667.628-2.065-.743-3.996-2.667-4-1.339-.003-2.396 1.012-2.747 2.183 1.471.961 2.153 2.633 1.924 4.484-1.252-3.98-5.844-3.024-5.844 0 0 .491.133.952.365 1.347l.301-.013 12.301.013z"/></symbol></defs></svg>